<svg width="1440" height="551" viewBox="0 0 1440 551" fill="none" xmlns="http://www.w3.org/2000/svg">
<path opacity="0.6" fill-rule="evenodd" clip-rule="evenodd" d="M-639.871 2C-657.112 2 -674.617 14.8011 -692.342 41.096L-694 39.9781C-676.191 13.5569 -658.163 0 -639.871 0C-621.578 0 -603.551 13.5569 -585.742 39.9781C-568.017 66.273 -550.512 79.0741 -533.271 79.0741C-516.03 79.0741 -498.524 66.273 -480.8 39.9781C-462.991 13.5569 -444.963 0 -426.671 0C-408.378 0 -390.351 13.5569 -372.542 39.9781C-354.817 66.273 -337.312 79.0741 -320.071 79.0741C-302.83 79.0741 -285.324 66.273 -267.6 39.9781C-249.791 13.5569 -231.763 0 -213.471 0C-195.178 0 -177.151 13.5569 -159.342 39.9781C-141.617 66.273 -124.112 79.0741 -106.871 79.0741C-89.6298 79.0741 -72.1241 66.273 -54.4 39.9781C-36.5908 13.5569 -18.5631 0 -0.270813 0C18.0215 0 36.0492 13.5569 53.8584 39.9781C71.5825 66.273 89.0882 79.0741 106.329 79.0741C123.57 79.0741 141.076 66.273 158.8 39.9781C176.609 13.5569 194.637 0 212.929 0C231.222 0 249.249 13.5569 267.058 39.9781C284.783 66.273 302.288 79.0741 319.529 79.0741C336.77 79.0741 354.276 66.273 372 39.9781C389.809 13.5569 407.837 0 426.129 0C444.422 0 462.449 13.5569 480.258 39.9781C497.983 66.273 515.488 79.0741 532.729 79.0741C549.97 79.0741 567.476 66.273 585.2 39.9781C603.009 13.5569 621.037 0 639.329 0C657.622 0 675.649 13.5569 693.458 39.9781C711.182 66.273 728.688 79.0741 745.929 79.0741C763.17 79.0741 780.676 66.273 798.4 39.9781C816.209 13.5569 834.237 0 852.529 0C870.822 0 888.849 13.5569 906.658 39.9781C924.382 66.273 941.888 79.0741 959.129 79.0741C976.37 79.0741 993.876 66.273 1011.6 39.9781C1029.41 13.5569 1047.44 0 1065.73 0C1084.02 0 1102.05 13.5569 1119.86 39.9781C1137.58 66.273 1155.09 79.0741 1172.33 79.0741C1189.57 79.0741 1207.08 66.273 1224.8 39.9781C1242.61 13.5569 1260.64 0 1278.93 0C1297.22 0 1315.25 13.5569 1333.06 39.9781C1350.78 66.273 1368.29 79.0741 1385.53 79.0741C1402.77 79.0741 1420.28 66.273 1438 39.9781L1439.66 41.096C1421.85 67.5172 1403.82 81.0741 1385.53 81.0741C1367.24 81.0741 1349.21 67.5172 1331.4 41.096C1313.68 14.8011 1296.17 2 1278.93 2C1261.69 2 1244.18 14.8011 1226.46 41.096C1208.65 67.5172 1190.62 81.0741 1172.33 81.0741C1154.04 81.0741 1136.01 67.5172 1118.2 41.096C1100.48 14.8011 1082.97 2 1065.73 2C1048.49 2 1030.98 14.8011 1013.26 41.096C995.449 67.5172 977.422 81.0741 959.129 81.0741C940.837 81.0741 922.809 67.5172 905 41.096C887.276 14.8011 869.77 2 852.529 2C835.288 2 817.782 14.8011 800.058 41.096C782.249 67.5172 764.222 81.0741 745.929 81.0741C727.637 81.0741 709.609 67.5172 691.8 41.096C674.076 14.8011 656.57 2 639.329 2C622.088 2 604.583 14.8011 586.858 41.096C569.049 67.5172 551.022 81.0741 532.729 81.0741C514.437 81.0741 496.409 67.5172 478.6 41.096C460.876 14.8011 443.37 2 426.129 2C408.888 2 391.382 14.8011 373.658 41.096C355.849 67.5172 337.822 81.0741 319.529 81.0741C301.237 81.0741 283.209 67.5172 265.4 41.096C247.676 14.8011 230.17 2 212.929 2C195.688 2 178.182 14.8011 160.458 41.096C142.649 67.5172 124.622 81.0741 106.329 81.0741C88.0369 81.0741 70.0093 67.5172 52.2 41.096C34.4759 14.8011 16.9702 2 -0.270813 2C-17.5118 2 -35.0175 14.8011 -52.7416 41.096C-70.5508 67.5172 -88.5784 81.0741 -106.871 81.0741C-125.163 81.0741 -143.191 67.5172 -161 41.096C-178.724 14.8011 -196.23 2 -213.471 2C-230.712 2 -248.217 14.8011 -265.942 41.096C-283.751 67.5172 -301.778 81.0741 -320.071 81.0741C-338.363 81.0741 -356.391 67.5172 -374.2 41.096C-391.924 14.8011 -409.43 2 -426.671 2C-443.912 2 -461.417 14.8011 -479.142 41.096C-496.951 67.5172 -514.978 81.0741 -533.271 81.0741C-551.563 81.0741 -569.591 67.5172 -587.4 41.096C-605.124 14.8011 -622.63 2 -639.871 2ZM-639.871 173.704C-657.112 173.704 -674.617 186.505 -692.342 212.8L-694 211.682C-676.191 185.261 -658.163 171.704 -639.871 171.704C-621.578 171.704 -603.551 185.261 -585.742 211.682C-568.017 237.977 -550.512 250.778 -533.271 250.778C-516.03 250.778 -498.524 237.977 -480.8 211.682C-462.991 185.261 -444.963 171.704 -426.671 171.704C-408.378 171.704 -390.351 185.261 -372.542 211.682C-354.817 237.977 -337.312 250.778 -320.071 250.778C-302.83 250.778 -285.324 237.977 -267.6 211.682C-249.791 185.261 -231.763 171.704 -213.471 171.704C-195.178 171.704 -177.151 185.261 -159.342 211.682C-141.617 237.977 -124.112 250.778 -106.871 250.778C-89.6298 250.778 -72.1241 237.977 -54.4 211.682C-36.5908 185.261 -18.5631 171.704 -0.270813 171.704C18.0215 171.704 36.0492 185.261 53.8584 211.682C71.5825 237.977 89.0882 250.778 106.329 250.778C123.57 250.778 141.076 237.977 158.8 211.682C176.609 185.261 194.637 171.704 212.929 171.704C231.222 171.704 249.249 185.261 267.058 211.682C284.783 237.977 302.288 250.778 319.529 250.778C336.77 250.778 354.276 237.977 372 211.682C389.809 185.261 407.837 171.704 426.129 171.704C444.422 171.704 462.449 185.261 480.258 211.682C497.983 237.977 515.488 250.778 532.729 250.778C549.97 250.778 567.476 237.977 585.2 211.682C603.009 185.261 621.037 171.704 639.329 171.704C657.622 171.704 675.649 185.261 693.458 211.682C711.182 237.977 728.688 250.778 745.929 250.778C763.17 250.778 780.676 237.977 798.4 211.682C816.209 185.261 834.237 171.704 852.529 171.704C870.822 171.704 888.849 185.261 906.658 211.682C924.382 237.977 941.888 250.778 959.129 250.778C976.37 250.778 993.876 237.977 1011.6 211.682C1029.41 185.261 1047.44 171.704 1065.73 171.704C1084.02 171.704 1102.05 185.261 1119.86 211.682C1137.58 237.977 1155.09 250.778 1172.33 250.778C1189.57 250.778 1207.08 237.977 1224.8 211.682C1242.61 185.261 1260.64 171.704 1278.93 171.704C1297.22 171.704 1315.25 185.261 1333.06 211.682C1350.78 237.977 1368.29 250.778 1385.53 250.778C1402.77 250.778 1420.28 237.977 1438 211.682L1439.66 212.8C1421.85 239.221 1403.82 252.778 1385.53 252.778C1367.24 252.778 1349.21 239.221 1331.4 212.8C1313.68 186.505 1296.17 173.704 1278.93 173.704C1261.69 173.704 1244.18 186.505 1226.46 212.8C1208.65 239.221 1190.62 252.778 1172.33 252.778C1154.04 252.778 1136.01 239.221 1118.2 212.8C1100.48 186.505 1082.97 173.704 1065.73 173.704C1048.49 173.704 1030.98 186.505 1013.26 212.8C995.449 239.221 977.422 252.778 959.129 252.778C940.837 252.778 922.809 239.221 905 212.8C887.276 186.505 869.77 173.704 852.529 173.704C835.288 173.704 817.782 186.505 800.058 212.8C782.249 239.221 764.222 252.778 745.929 252.778C727.637 252.778 709.609 239.221 691.8 212.8C674.076 186.505 656.57 173.704 639.329 173.704C622.088 173.704 604.583 186.505 586.858 212.8C569.049 239.221 551.022 252.778 532.729 252.778C514.437 252.778 496.409 239.221 478.6 212.8C460.876 186.505 443.37 173.704 426.129 173.704C408.888 173.704 391.382 186.505 373.658 212.8C355.849 239.221 337.822 252.778 319.529 252.778C301.237 252.778 283.209 239.221 265.4 212.8C247.676 186.505 230.17 173.704 212.929 173.704C195.688 173.704 178.182 186.505 160.458 212.8C142.649 239.221 124.622 252.778 106.329 252.778C88.0369 252.778 70.0093 239.221 52.2 212.8C34.4759 186.505 16.9702 173.704 -0.270813 173.704C-17.5118 173.704 -35.0175 186.505 -52.7416 212.8C-70.5508 239.221 -88.5784 252.778 -106.871 252.778C-125.163 252.778 -143.191 239.221 -161 212.8C-178.724 186.505 -196.23 173.704 -213.471 173.704C-230.712 173.704 -248.217 186.505 -265.942 212.8C-283.751 239.221 -301.778 252.778 -320.071 252.778C-338.363 252.778 -356.391 239.221 -374.2 212.8C-391.924 186.505 -409.43 173.704 -426.671 173.704C-443.912 173.704 -461.417 186.505 -479.142 212.8C-496.951 239.221 -514.978 252.778 -533.271 252.778C-551.563 252.778 -569.591 239.221 -587.4 212.8C-605.124 186.505 -622.63 173.704 -639.871 173.704ZM-639.871 345.407C-657.112 345.407 -674.617 358.208 -692.342 384.503L-694 383.385C-676.191 356.964 -658.163 343.407 -639.871 343.407C-621.578 343.407 -603.551 356.964 -585.742 383.385C-568.017 409.68 -550.512 422.481 -533.271 422.481C-516.03 422.481 -498.524 409.68 -480.8 383.385C-462.991 356.964 -444.963 343.407 -426.671 343.407C-408.378 343.407 -390.351 356.964 -372.542 383.385C-354.817 409.68 -337.312 422.481 -320.071 422.481C-302.83 422.481 -285.324 409.68 -267.6 383.385C-249.791 356.964 -231.763 343.407 -213.471 343.407C-195.178 343.407 -177.151 356.964 -159.342 383.385C-141.617 409.68 -124.112 422.481 -106.871 422.481C-89.6298 422.481 -72.1241 409.68 -54.4 383.385C-36.5908 356.964 -18.5631 343.407 -0.270813 343.407C18.0215 343.407 36.0492 356.964 53.8584 383.385C71.5825 409.68 89.0882 422.481 106.329 422.481C123.57 422.481 141.076 409.68 158.8 383.385C176.609 356.964 194.637 343.407 212.929 343.407C231.222 343.407 249.249 356.964 267.058 383.385C284.783 409.68 302.288 422.481 319.529 422.481C336.77 422.481 354.276 409.68 372 383.385C389.809 356.964 407.837 343.407 426.129 343.407C444.422 343.407 462.449 356.964 480.258 383.385C497.983 409.68 515.488 422.481 532.729 422.481C549.97 422.481 567.476 409.68 585.2 383.385C603.009 356.964 621.037 343.407 639.329 343.407C657.622 343.407 675.649 356.964 693.458 383.385C711.182 409.68 728.688 422.481 745.929 422.481C763.17 422.481 780.676 409.68 798.4 383.385C816.209 356.964 834.237 343.407 852.529 343.407C870.822 343.407 888.849 356.964 906.658 383.385C924.382 409.68 941.888 422.481 959.129 422.481C976.37 422.481 993.876 409.68 1011.6 383.385C1029.41 356.964 1047.44 343.407 1065.73 343.407C1084.02 343.407 1102.05 356.964 1119.86 383.385C1137.58 409.68 1155.09 422.481 1172.33 422.481C1189.57 422.481 1207.08 409.68 1224.8 383.385C1242.61 356.964 1260.64 343.407 1278.93 343.407C1297.22 343.407 1315.25 356.964 1333.06 383.385C1350.78 409.68 1368.29 422.481 1385.53 422.481C1402.77 422.481 1420.28 409.68 1438 383.385L1439.66 384.503C1421.85 410.924 1403.82 424.481 1385.53 424.481C1367.24 424.481 1349.21 410.924 1331.4 384.503C1313.68 358.208 1296.17 345.407 1278.93 345.407C1261.69 345.407 1244.18 358.208 1226.46 384.503C1208.65 410.924 1190.62 424.481 1172.33 424.481C1154.04 424.481 1136.01 410.924 1118.2 384.503C1100.48 358.208 1082.97 345.407 1065.73 345.407C1048.49 345.407 1030.98 358.208 1013.26 384.503C995.449 410.924 977.422 424.481 959.129 424.481C940.837 424.481 922.809 410.924 905 384.503C887.276 358.208 869.77 345.407 852.529 345.407C835.288 345.407 817.782 358.208 800.058 384.503C782.249 410.924 764.222 424.481 745.929 424.481C727.637 424.481 709.609 410.924 691.8 384.503C674.076 358.208 656.57 345.407 639.329 345.407C622.088 345.407 604.583 358.208 586.858 384.503C569.049 410.924 551.022 424.481 532.729 424.481C514.437 424.481 496.409 410.924 478.6 384.503C460.876 358.208 443.37 345.407 426.129 345.407C408.888 345.407 391.382 358.208 373.658 384.503C355.849 410.924 337.822 424.481 319.529 424.481C301.237 424.481 283.209 410.924 265.4 384.503C247.676 358.208 230.17 345.407 212.929 345.407C195.688 345.407 178.182 358.208 160.458 384.503C142.649 410.924 124.622 424.481 106.329 424.481C88.0369 424.481 70.0093 410.924 52.2 384.503C34.4759 358.208 16.9702 345.407 -0.270813 345.407C-17.5118 345.407 -35.0175 358.208 -52.7416 384.503C-70.5508 410.924 -88.5784 424.481 -106.871 424.481C-125.163 424.481 -143.191 410.924 -161 384.503C-178.724 358.208 -196.23 345.407 -213.471 345.407C-230.712 345.407 -248.217 358.208 -265.942 384.503C-283.751 410.924 -301.778 424.481 -320.071 424.481C-338.363 424.481 -356.391 410.924 -374.2 384.503C-391.924 358.208 -409.43 345.407 -426.671 345.407C-443.912 345.407 -461.417 358.208 -479.142 384.503C-496.951 410.924 -514.978 424.481 -533.271 424.481C-551.563 424.481 -569.591 410.924 -587.4 384.503C-605.124 358.208 -622.63 345.407 -639.871 345.407ZM-639.871 42.6667C-657.112 42.6667 -674.617 55.4679 -692.342 81.7627L-694 80.6449C-676.191 54.2237 -658.163 40.6667 -639.871 40.6667C-621.578 40.6667 -603.551 54.2237 -585.742 80.6449C-568.017 106.94 -550.512 119.741 -533.271 119.741C-516.03 119.741 -498.524 106.94 -480.8 80.6449C-462.991 54.2237 -444.963 40.6667 -426.671 40.6667C-408.378 40.6667 -390.351 54.2237 -372.542 80.6449C-354.817 106.94 -337.312 119.741 -320.071 119.741C-302.83 119.741 -285.324 106.94 -267.6 80.6449C-249.791 54.2237 -231.763 40.6667 -213.471 40.6667C-195.178 40.6667 -177.151 54.2237 -159.342 80.6449C-141.617 106.94 -124.112 119.741 -106.871 119.741C-89.6298 119.741 -72.1241 106.94 -54.4 80.6449C-36.5908 54.2237 -18.5631 40.6667 -0.270813 40.6667C18.0215 40.6667 36.0492 54.2237 53.8584 80.6449C71.5825 106.94 89.0882 119.741 106.329 119.741C123.57 119.741 141.076 106.94 158.8 80.6449C176.609 54.2237 194.637 40.6667 212.929 40.6667C231.222 40.6667 249.249 54.2237 267.058 80.6449C284.783 106.94 302.288 119.741 319.529 119.741C336.77 119.741 354.276 106.94 372 80.6449C389.809 54.2237 407.837 40.6667 426.129 40.6667C444.422 40.6667 462.449 54.2237 480.258 80.6449C497.983 106.94 515.488 119.741 532.729 119.741C549.97 119.741 567.476 106.94 585.2 80.6449C603.009 54.2237 621.037 40.6667 639.329 40.6667C657.622 40.6667 675.649 54.2237 693.458 80.6449C711.182 106.94 728.688 119.741 745.929 119.741C763.17 119.741 780.676 106.94 798.4 80.6449C816.209 54.2237 834.237 40.6667 852.529 40.6667C870.822 40.6667 888.849 54.2237 906.658 80.6449C924.382 106.94 941.888 119.741 959.129 119.741C976.37 119.741 993.876 106.94 1011.6 80.6449C1029.41 54.2237 1047.44 40.6667 1065.73 40.6667C1084.02 40.6667 1102.05 54.2237 1119.86 80.6449C1137.58 106.94 1155.09 119.741 1172.33 119.741C1189.57 119.741 1207.08 106.94 1224.8 80.6449C1242.61 54.2237 1260.64 40.6667 1278.93 40.6667C1297.22 40.6667 1315.25 54.2237 1333.06 80.6449C1350.78 106.94 1368.29 119.741 1385.53 119.741C1402.77 119.741 1420.28 106.94 1438 80.6449L1439.66 81.7627C1421.85 108.184 1403.82 121.741 1385.53 121.741C1367.24 121.741 1349.21 108.184 1331.4 81.7627C1313.68 55.4679 1296.17 42.6667 1278.93 42.6667C1261.69 42.6667 1244.18 55.4679 1226.46 81.7627C1208.65 108.184 1190.62 121.741 1172.33 121.741C1154.04 121.741 1136.01 108.184 1118.2 81.7627C1100.48 55.4679 1082.97 42.6667 1065.73 42.6667C1048.49 42.6667 1030.98 55.4679 1013.26 81.7627C995.449 108.184 977.422 121.741 959.129 121.741C940.837 121.741 922.809 108.184 905 81.7627C887.276 55.4679 869.77 42.6667 852.529 42.6667C835.288 42.6667 817.782 55.4679 800.058 81.7627C782.249 108.184 764.222 121.741 745.929 121.741C727.637 121.741 709.609 108.184 691.8 81.7627C674.076 55.4679 656.57 42.6667 639.329 42.6667C622.088 42.6667 604.583 55.4679 586.858 81.7627C569.049 108.184 551.022 121.741 532.729 121.741C514.437 121.741 496.409 108.184 478.6 81.7627C460.876 55.4679 443.37 42.6667 426.129 42.6667C408.888 42.6667 391.382 55.4679 373.658 81.7627C355.849 108.184 337.822 121.741 319.529 121.741C301.237 121.741 283.209 108.184 265.4 81.7627C247.676 55.4679 230.17 42.6667 212.929 42.6667C195.688 42.6667 178.182 55.4679 160.458 81.7627C142.649 108.184 124.622 121.741 106.329 121.741C88.0369 121.741 70.0093 108.184 52.2 81.7627C34.4759 55.4679 16.9702 42.6667 -0.270813 42.6667C-17.5118 42.6667 -35.0175 55.4679 -52.7416 81.7627C-70.5508 108.184 -88.5784 121.741 -106.871 121.741C-125.163 121.741 -143.191 108.184 -161 81.7627C-178.724 55.4679 -196.23 42.6667 -213.471 42.6667C-230.712 42.6667 -248.217 55.4679 -265.942 81.7627C-283.751 108.184 -301.778 121.741 -320.071 121.741C-338.363 121.741 -356.391 108.184 -374.2 81.7627C-391.924 55.4679 -409.43 42.6667 -426.671 42.6667C-443.912 42.6667 -461.417 55.4679 -479.142 81.7627C-496.951 108.184 -514.978 121.741 -533.271 121.741C-551.563 121.741 -569.591 108.184 -587.4 81.7627C-605.124 55.4679 -622.63 42.6667 -639.871 42.6667ZM-639.871 214.37C-657.112 214.37 -674.617 227.171 -692.342 253.466L-694 252.348C-676.191 225.927 -658.163 212.37 -639.871 212.37C-621.578 212.37 -603.551 225.927 -585.742 252.348C-568.017 278.643 -550.512 291.444 -533.271 291.444C-516.03 291.444 -498.524 278.643 -480.8 252.348C-462.991 225.927 -444.963 212.37 -426.671 212.37C-408.378 212.37 -390.351 225.927 -372.542 252.348C-354.817 278.643 -337.312 291.444 -320.071 291.444C-302.83 291.444 -285.324 278.643 -267.6 252.348C-249.791 225.927 -231.763 212.37 -213.471 212.37C-195.178 212.37 -177.151 225.927 -159.342 252.348C-141.617 278.643 -124.112 291.444 -106.871 291.444C-89.6298 291.444 -72.1241 278.643 -54.4 252.348C-36.5908 225.927 -18.5631 212.37 -0.270813 212.37C18.0215 212.37 36.0492 225.927 53.8584 252.348C71.5825 278.643 89.0882 291.444 106.329 291.444C123.57 291.444 141.076 278.643 158.8 252.348C176.609 225.927 194.637 212.37 212.929 212.37C231.222 212.37 249.249 225.927 267.058 252.348C284.783 278.643 302.288 291.444 319.529 291.444C336.77 291.444 354.276 278.643 372 252.348C389.809 225.927 407.837 212.37 426.129 212.37C444.422 212.37 462.449 225.927 480.258 252.348C497.983 278.643 515.488 291.444 532.729 291.444C549.97 291.444 567.476 278.643 585.2 252.348C603.009 225.927 621.037 212.37 639.329 212.37C657.622 212.37 675.649 225.927 693.458 252.348C711.182 278.643 728.688 291.444 745.929 291.444C763.17 291.444 780.676 278.643 798.4 252.348C816.209 225.927 834.237 212.37 852.529 212.37C870.822 212.37 888.849 225.927 906.658 252.348C924.382 278.643 941.888 291.444 959.129 291.444C976.37 291.444 993.876 278.643 1011.6 252.348C1029.41 225.927 1047.44 212.37 1065.73 212.37C1084.02 212.37 1102.05 225.927 1119.86 252.348C1137.58 278.643 1155.09 291.444 1172.33 291.444C1189.57 291.444 1207.08 278.643 1224.8 252.348C1242.61 225.927 1260.64 212.37 1278.93 212.37C1297.22 212.37 1315.25 225.927 1333.06 252.348C1350.78 278.643 1368.29 291.444 1385.53 291.444C1402.77 291.444 1420.28 278.643 1438 252.348L1439.66 253.466C1421.85 279.888 1403.82 293.444 1385.53 293.444C1367.24 293.444 1349.21 279.888 1331.4 253.466C1313.68 227.171 1296.17 214.37 1278.93 214.37C1261.69 214.37 1244.18 227.171 1226.46 253.466C1208.65 279.888 1190.62 293.444 1172.33 293.444C1154.04 293.444 1136.01 279.888 1118.2 253.466C1100.48 227.171 1082.97 214.37 1065.73 214.37C1048.49 214.37 1030.98 227.171 1013.26 253.466C995.449 279.888 977.422 293.444 959.129 293.444C940.837 293.444 922.809 279.888 905 253.466C887.276 227.171 869.77 214.37 852.529 214.37C835.288 214.37 817.782 227.171 800.058 253.466C782.249 279.888 764.222 293.444 745.929 293.444C727.637 293.444 709.609 279.888 691.8 253.466C674.076 227.171 656.57 214.37 639.329 214.37C622.088 214.37 604.583 227.171 586.858 253.466C569.049 279.888 551.022 293.444 532.729 293.444C514.437 293.444 496.409 279.888 478.6 253.466C460.876 227.171 443.37 214.37 426.129 214.37C408.888 214.37 391.382 227.171 373.658 253.466C355.849 279.888 337.822 293.444 319.529 293.444C301.237 293.444 283.209 279.888 265.4 253.466C247.676 227.171 230.17 214.37 212.929 214.37C195.688 214.37 178.182 227.171 160.458 253.466C142.649 279.888 124.622 293.444 106.329 293.444C88.0369 293.444 70.0093 279.888 52.2 253.466C34.4759 227.171 16.9702 214.37 -0.270813 214.37C-17.5118 214.37 -35.0175 227.171 -52.7416 253.466C-70.5508 279.888 -88.5784 293.444 -106.871 293.444C-125.163 293.444 -143.191 279.888 -161 253.466C-178.724 227.171 -196.23 214.37 -213.471 214.37C-230.712 214.37 -248.217 227.171 -265.942 253.466C-283.751 279.888 -301.778 293.444 -320.071 293.444C-338.363 293.444 -356.391 279.888 -374.2 253.466C-391.924 227.171 -409.43 214.37 -426.671 214.37C-443.912 214.37 -461.417 227.171 -479.142 253.466C-496.951 279.888 -514.978 293.444 -533.271 293.444C-551.563 293.444 -569.591 279.888 -587.4 253.466C-605.124 227.171 -622.63 214.37 -639.871 214.37ZM-639.871 386.074C-657.112 386.074 -674.617 398.875 -692.342 425.17L-694 424.052C-676.191 397.631 -658.163 384.074 -639.871 384.074C-621.578 384.074 -603.551 397.631 -585.742 424.052C-568.017 450.347 -550.512 463.148 -533.271 463.148C-516.03 463.148 -498.524 450.347 -480.8 424.052C-462.991 397.631 -444.963 384.074 -426.671 384.074C-408.378 384.074 -390.351 397.631 -372.542 424.052C-354.817 450.347 -337.312 463.148 -320.071 463.148C-302.83 463.148 -285.324 450.347 -267.6 424.052C-249.791 397.631 -231.763 384.074 -213.471 384.074C-195.178 384.074 -177.151 397.631 -159.342 424.052C-141.617 450.347 -124.112 463.148 -106.871 463.148C-89.6298 463.148 -72.1241 450.347 -54.4 424.052C-36.5908 397.631 -18.5631 384.074 -0.270813 384.074C18.0215 384.074 36.0492 397.631 53.8584 424.052C71.5825 450.347 89.0882 463.148 106.329 463.148C123.57 463.148 141.076 450.347 158.8 424.052C176.609 397.631 194.637 384.074 212.929 384.074C231.222 384.074 249.249 397.631 267.058 424.052C284.783 450.347 302.288 463.148 319.529 463.148C336.77 463.148 354.276 450.347 372 424.052C389.809 397.631 407.837 384.074 426.129 384.074C444.422 384.074 462.449 397.631 480.258 424.052C497.983 450.347 515.488 463.148 532.729 463.148C549.97 463.148 567.476 450.347 585.2 424.052C603.009 397.631 621.037 384.074 639.329 384.074C657.622 384.074 675.649 397.631 693.458 424.052C711.182 450.347 728.688 463.148 745.929 463.148C763.17 463.148 780.676 450.347 798.4 424.052C816.209 397.631 834.237 384.074 852.529 384.074C870.822 384.074 888.849 397.631 906.658 424.052C924.382 450.347 941.888 463.148 959.129 463.148C976.37 463.148 993.876 450.347 1011.6 424.052C1029.41 397.631 1047.44 384.074 1065.73 384.074C1084.02 384.074 1102.05 397.631 1119.86 424.052C1137.58 450.347 1155.09 463.148 1172.33 463.148C1189.57 463.148 1207.08 450.347 1224.8 424.052C1242.61 397.631 1260.64 384.074 1278.93 384.074C1297.22 384.074 1315.25 397.631 1333.06 424.052C1350.78 450.347 1368.29 463.148 1385.53 463.148C1402.77 463.148 1420.28 450.347 1438 424.052L1439.66 425.17C1421.85 451.591 1403.82 465.148 1385.53 465.148C1367.24 465.148 1349.21 451.591 1331.4 425.17C1313.68 398.875 1296.17 386.074 1278.93 386.074C1261.69 386.074 1244.18 398.875 1226.46 425.17C1208.65 451.591 1190.62 465.148 1172.33 465.148C1154.04 465.148 1136.01 451.591 1118.2 425.17C1100.48 398.875 1082.97 386.074 1065.73 386.074C1048.49 386.074 1030.98 398.875 1013.26 425.17C995.449 451.591 977.422 465.148 959.129 465.148C940.837 465.148 922.809 451.591 905 425.17C887.276 398.875 869.77 386.074 852.529 386.074C835.288 386.074 817.782 398.875 800.058 425.17C782.249 451.591 764.222 465.148 745.929 465.148C727.637 465.148 709.609 451.591 691.8 425.17C674.076 398.875 656.57 386.074 639.329 386.074C622.088 386.074 604.583 398.875 586.858 425.17C569.049 451.591 551.022 465.148 532.729 465.148C514.437 465.148 496.409 451.591 478.6 425.17C460.876 398.875 443.37 386.074 426.129 386.074C408.888 386.074 391.382 398.875 373.658 425.17C355.849 451.591 337.822 465.148 319.529 465.148C301.237 465.148 283.209 451.591 265.4 425.17C247.676 398.875 230.17 386.074 212.929 386.074C195.688 386.074 178.182 398.875 160.458 425.17C142.649 451.591 124.622 465.148 106.329 465.148C88.0369 465.148 70.0093 451.591 52.2 425.17C34.4759 398.875 16.9702 386.074 -0.270813 386.074C-17.5118 386.074 -35.0175 398.875 -52.7416 425.17C-70.5508 451.591 -88.5784 465.148 -106.871 465.148C-125.163 465.148 -143.191 451.591 -161 425.17C-178.724 398.875 -196.23 386.074 -213.471 386.074C-230.712 386.074 -248.217 398.875 -265.942 425.17C-283.751 451.591 -301.778 465.148 -320.071 465.148C-338.363 465.148 -356.391 451.591 -374.2 425.17C-391.924 398.875 -409.43 386.074 -426.671 386.074C-443.912 386.074 -461.417 398.875 -479.142 425.17C-496.951 451.591 -514.978 465.148 -533.271 465.148C-551.563 465.148 -569.591 451.591 -587.4 425.17C-605.124 398.875 -622.63 386.074 -639.871 386.074ZM-639.871 87.8518C-657.112 87.8518 -674.617 100.653 -692.342 126.948L-694 125.83C-676.191 99.4087 -658.163 85.8518 -639.871 85.8518C-621.578 85.8518 -603.551 99.4087 -585.742 125.83C-568.017 152.125 -550.512 164.926 -533.271 164.926C-516.03 164.926 -498.524 152.125 -480.8 125.83C-462.991 99.4087 -444.963 85.8518 -426.671 85.8518C-408.378 85.8518 -390.351 99.4087 -372.542 125.83C-354.817 152.125 -337.312 164.926 -320.071 164.926C-302.83 164.926 -285.324 152.125 -267.6 125.83C-249.791 99.4087 -231.763 85.8518 -213.471 85.8518C-195.178 85.8518 -177.151 99.4087 -159.342 125.83C-141.617 152.125 -124.112 164.926 -106.871 164.926C-89.6298 164.926 -72.1241 152.125 -54.4 125.83C-36.5908 99.4087 -18.5631 85.8518 -0.270813 85.8518C18.0215 85.8518 36.0492 99.4087 53.8584 125.83C71.5825 152.125 89.0882 164.926 106.329 164.926C123.57 164.926 141.076 152.125 158.8 125.83C176.609 99.4087 194.637 85.8518 212.929 85.8518C231.222 85.8518 249.249 99.4087 267.058 125.83C284.783 152.125 302.288 164.926 319.529 164.926C336.77 164.926 354.276 152.125 372 125.83C389.809 99.4087 407.837 85.8518 426.129 85.8518C444.422 85.8518 462.449 99.4087 480.258 125.83C497.983 152.125 515.488 164.926 532.729 164.926C549.97 164.926 567.476 152.125 585.2 125.83C603.009 99.4087 621.037 85.8518 639.329 85.8518C657.622 85.8518 675.649 99.4087 693.458 125.83C711.182 152.125 728.688 164.926 745.929 164.926C763.17 164.926 780.676 152.125 798.4 125.83C816.209 99.4087 834.237 85.8518 852.529 85.8518C870.822 85.8518 888.849 99.4087 906.658 125.83C924.382 152.125 941.888 164.926 959.129 164.926C976.37 164.926 993.876 152.125 1011.6 125.83C1029.41 99.4087 1047.44 85.8518 1065.73 85.8518C1084.02 85.8518 1102.05 99.4087 1119.86 125.83C1137.58 152.125 1155.09 164.926 1172.33 164.926C1189.57 164.926 1207.08 152.125 1224.8 125.83C1242.61 99.4087 1260.64 85.8518 1278.93 85.8518C1297.22 85.8518 1315.25 99.4087 1333.06 125.83C1350.78 152.125 1368.29 164.926 1385.53 164.926C1402.77 164.926 1420.28 152.125 1438 125.83L1439.66 126.948C1421.85 153.369 1403.82 166.926 1385.53 166.926C1367.24 166.926 1349.21 153.369 1331.4 126.948C1313.68 100.653 1296.17 87.8518 1278.93 87.8518C1261.69 87.8518 1244.18 100.653 1226.46 126.948C1208.65 153.369 1190.62 166.926 1172.33 166.926C1154.04 166.926 1136.01 153.369 1118.2 126.948C1100.48 100.653 1082.97 87.8518 1065.73 87.8518C1048.49 87.8518 1030.98 100.653 1013.26 126.948C995.449 153.369 977.422 166.926 959.129 166.926C940.837 166.926 922.809 153.369 905 126.948C887.276 100.653 869.77 87.8518 852.529 87.8518C835.288 87.8518 817.782 100.653 800.058 126.948C782.249 153.369 764.222 166.926 745.929 166.926C727.637 166.926 709.609 153.369 691.8 126.948C674.076 100.653 656.57 87.8518 639.329 87.8518C622.088 87.8518 604.583 100.653 586.858 126.948C569.049 153.369 551.022 166.926 532.729 166.926C514.437 166.926 496.409 153.369 478.6 126.948C460.876 100.653 443.37 87.8518 426.129 87.8518C408.888 87.8518 391.382 100.653 373.658 126.948C355.849 153.369 337.822 166.926 319.529 166.926C301.237 166.926 283.209 153.369 265.4 126.948C247.676 100.653 230.17 87.8518 212.929 87.8518C195.688 87.8518 178.182 100.653 160.458 126.948C142.649 153.369 124.622 166.926 106.329 166.926C88.0369 166.926 70.0093 153.369 52.2 126.948C34.4759 100.653 16.9702 87.8518 -0.270813 87.8518C-17.5118 87.8518 -35.0175 100.653 -52.7416 126.948C-70.5508 153.369 -88.5784 166.926 -106.871 166.926C-125.163 166.926 -143.191 153.369 -161 126.948C-178.724 100.653 -196.23 87.8518 -213.471 87.8518C-230.712 87.8518 -248.217 100.653 -265.942 126.948C-283.751 153.369 -301.778 166.926 -320.071 166.926C-338.363 166.926 -356.391 153.369 -374.2 126.948C-391.924 100.653 -409.43 87.8518 -426.671 87.8518C-443.912 87.8518 -461.417 100.653 -479.142 126.948C-496.951 153.369 -514.978 166.926 -533.271 166.926C-551.563 166.926 -569.591 153.369 -587.4 126.948C-605.124 100.653 -622.63 87.8518 -639.871 87.8518ZM-639.871 259.555C-657.112 259.555 -674.617 272.357 -692.342 298.651L-694 297.534C-676.191 271.112 -658.163 257.555 -639.871 257.555C-621.578 257.555 -603.551 271.112 -585.742 297.534C-568.017 323.828 -550.512 336.629 -533.271 336.629C-516.03 336.629 -498.524 323.828 -480.8 297.534C-462.991 271.112 -444.963 257.555 -426.671 257.555C-408.378 257.555 -390.351 271.112 -372.542 297.534C-354.817 323.828 -337.312 336.629 -320.071 336.629C-302.83 336.629 -285.324 323.828 -267.6 297.534C-249.791 271.112 -231.763 257.555 -213.471 257.555C-195.178 257.555 -177.151 271.112 -159.342 297.534C-141.617 323.828 -124.112 336.629 -106.871 336.629C-89.6298 336.629 -72.1241 323.828 -54.4 297.534C-36.5908 271.112 -18.5631 257.555 -0.270813 257.555C18.0215 257.555 36.0492 271.112 53.8584 297.534C71.5825 323.828 89.0882 336.629 106.329 336.629C123.57 336.629 141.076 323.828 158.8 297.534C176.609 271.112 194.637 257.555 212.929 257.555C231.222 257.555 249.249 271.112 267.058 297.534C284.783 323.828 302.288 336.629 319.529 336.629C336.77 336.629 354.276 323.828 372 297.534C389.809 271.112 407.837 257.555 426.129 257.555C444.422 257.555 462.449 271.112 480.258 297.534C497.983 323.828 515.488 336.629 532.729 336.629C549.97 336.629 567.476 323.828 585.2 297.534C603.009 271.112 621.037 257.555 639.329 257.555C657.622 257.555 675.649 271.112 693.458 297.534C711.182 323.828 728.688 336.629 745.929 336.629C763.17 336.629 780.676 323.828 798.4 297.534C816.209 271.112 834.237 257.555 852.529 257.555C870.822 257.555 888.849 271.112 906.658 297.534C924.382 323.828 941.888 336.629 959.129 336.629C976.37 336.629 993.876 323.828 1011.6 297.534C1029.41 271.112 1047.44 257.555 1065.73 257.555C1084.02 257.555 1102.05 271.112 1119.86 297.534C1137.58 323.828 1155.09 336.629 1172.33 336.629C1189.57 336.629 1207.08 323.828 1224.8 297.534C1242.61 271.112 1260.64 257.555 1278.93 257.555C1297.22 257.555 1315.25 271.112 1333.06 297.534C1350.78 323.828 1368.29 336.629 1385.53 336.629C1402.77 336.629 1420.28 323.828 1438 297.534L1439.66 298.651C1421.85 325.073 1403.82 338.629 1385.53 338.629C1367.24 338.629 1349.21 325.073 1331.4 298.651C1313.68 272.357 1296.17 259.555 1278.93 259.555C1261.69 259.555 1244.18 272.357 1226.46 298.651C1208.65 325.073 1190.62 338.629 1172.33 338.629C1154.04 338.629 1136.01 325.073 1118.2 298.651C1100.48 272.357 1082.97 259.555 1065.73 259.555C1048.49 259.555 1030.98 272.357 1013.26 298.651C995.449 325.073 977.422 338.629 959.129 338.629C940.837 338.629 922.809 325.073 905 298.651C887.276 272.357 869.77 259.555 852.529 259.555C835.288 259.555 817.782 272.357 800.058 298.651C782.249 325.073 764.222 338.629 745.929 338.629C727.637 338.629 709.609 325.073 691.8 298.651C674.076 272.357 656.57 259.555 639.329 259.555C622.088 259.555 604.583 272.357 586.858 298.651C569.049 325.073 551.022 338.629 532.729 338.629C514.437 338.629 496.409 325.073 478.6 298.651C460.876 272.357 443.37 259.555 426.129 259.555C408.888 259.555 391.382 272.357 373.658 298.651C355.849 325.073 337.822 338.629 319.529 338.629C301.237 338.629 283.209 325.073 265.4 298.651C247.676 272.357 230.17 259.555 212.929 259.555C195.688 259.555 178.182 272.357 160.458 298.651C142.649 325.073 124.622 338.629 106.329 338.629C88.0369 338.629 70.0093 325.073 52.2 298.651C34.4759 272.357 16.9702 259.555 -0.270813 259.555C-17.5118 259.555 -35.0175 272.357 -52.7416 298.651C-70.5508 325.073 -88.5784 338.629 -106.871 338.629C-125.163 338.629 -143.191 325.073 -161 298.651C-178.724 272.357 -196.23 259.555 -213.471 259.555C-230.712 259.555 -248.217 272.357 -265.942 298.651C-283.751 325.073 -301.778 338.629 -320.071 338.629C-338.363 338.629 -356.391 325.073 -374.2 298.651C-391.924 272.357 -409.43 259.555 -426.671 259.555C-443.912 259.555 -461.417 272.357 -479.142 298.651C-496.951 325.073 -514.978 338.629 -533.271 338.629C-551.563 338.629 -569.591 325.073 -587.4 298.651C-605.124 272.357 -622.63 259.555 -639.871 259.555ZM-639.871 431.259C-657.112 431.259 -674.617 444.06 -692.342 470.355L-694 469.237C-676.191 442.816 -658.163 429.259 -639.871 429.259C-621.578 429.259 -603.551 442.816 -585.742 469.237C-568.017 495.532 -550.512 508.333 -533.271 508.333C-516.03 508.333 -498.524 495.532 -480.8 469.237C-462.991 442.816 -444.963 429.259 -426.671 429.259C-408.378 429.259 -390.351 442.816 -372.542 469.237C-354.817 495.532 -337.312 508.333 -320.071 508.333C-302.83 508.333 -285.324 495.532 -267.6 469.237C-249.791 442.816 -231.763 429.259 -213.471 429.259C-195.178 429.259 -177.151 442.816 -159.342 469.237C-141.617 495.532 -124.112 508.333 -106.871 508.333C-89.6298 508.333 -72.1241 495.532 -54.4 469.237C-36.5908 442.816 -18.5631 429.259 -0.270813 429.259C18.0215 429.259 36.0492 442.816 53.8584 469.237C71.5825 495.532 89.0882 508.333 106.329 508.333C123.57 508.333 141.076 495.532 158.8 469.237C176.609 442.816 194.637 429.259 212.929 429.259C231.222 429.259 249.249 442.816 267.058 469.237C284.783 495.532 302.288 508.333 319.529 508.333C336.77 508.333 354.276 495.532 372 469.237C389.809 442.816 407.837 429.259 426.129 429.259C444.422 429.259 462.449 442.816 480.258 469.237C497.983 495.532 515.488 508.333 532.729 508.333C549.97 508.333 567.476 495.532 585.2 469.237C603.009 442.816 621.037 429.259 639.329 429.259C657.622 429.259 675.649 442.816 693.458 469.237C711.182 495.532 728.688 508.333 745.929 508.333C763.17 508.333 780.676 495.532 798.4 469.237C816.209 442.816 834.237 429.259 852.529 429.259C870.822 429.259 888.849 442.816 906.658 469.237C924.382 495.532 941.888 508.333 959.129 508.333C976.37 508.333 993.876 495.532 1011.6 469.237C1029.41 442.816 1047.44 429.259 1065.73 429.259C1084.02 429.259 1102.05 442.816 1119.86 469.237C1137.58 495.532 1155.09 508.333 1172.33 508.333C1189.57 508.333 1207.08 495.532 1224.8 469.237C1242.61 442.816 1260.64 429.259 1278.93 429.259C1297.22 429.259 1315.25 442.816 1333.06 469.237C1350.78 495.532 1368.29 508.333 1385.53 508.333C1402.77 508.333 1420.28 495.532 1438 469.237L1439.66 470.355C1421.85 496.776 1403.82 510.333 1385.53 510.333C1367.24 510.333 1349.21 496.776 1331.4 470.355C1313.68 444.06 1296.17 431.259 1278.93 431.259C1261.69 431.259 1244.18 444.06 1226.46 470.355C1208.65 496.776 1190.62 510.333 1172.33 510.333C1154.04 510.333 1136.01 496.776 1118.2 470.355C1100.48 444.06 1082.97 431.259 1065.73 431.259C1048.49 431.259 1030.98 444.06 1013.26 470.355C995.449 496.776 977.422 510.333 959.129 510.333C940.837 510.333 922.809 496.776 905 470.355C887.276 444.06 869.77 431.259 852.529 431.259C835.288 431.259 817.782 444.06 800.058 470.355C782.249 496.776 764.222 510.333 745.929 510.333C727.637 510.333 709.609 496.776 691.8 470.355C674.076 444.06 656.57 431.259 639.329 431.259C622.088 431.259 604.583 444.06 586.858 470.355C569.049 496.776 551.022 510.333 532.729 510.333C514.437 510.333 496.409 496.776 478.6 470.355C460.876 444.06 443.37 431.259 426.129 431.259C408.888 431.259 391.382 444.06 373.658 470.355C355.849 496.776 337.822 510.333 319.529 510.333C301.237 510.333 283.209 496.776 265.4 470.355C247.676 444.06 230.17 431.259 212.929 431.259C195.688 431.259 178.182 444.06 160.458 470.355C142.649 496.776 124.622 510.333 106.329 510.333C88.0369 510.333 70.0093 496.776 52.2 470.355C34.4759 444.06 16.9702 431.259 -0.270813 431.259C-17.5118 431.259 -35.0175 444.06 -52.7416 470.355C-70.5508 496.776 -88.5784 510.333 -106.871 510.333C-125.163 510.333 -143.191 496.776 -161 470.355C-178.724 444.06 -196.23 431.259 -213.471 431.259C-230.712 431.259 -248.217 444.06 -265.942 470.355C-283.751 496.776 -301.778 510.333 -320.071 510.333C-338.363 510.333 -356.391 496.776 -374.2 470.355C-391.924 444.06 -409.43 431.259 -426.671 431.259C-443.912 431.259 -461.417 444.06 -479.142 470.355C-496.951 496.776 -514.978 510.333 -533.271 510.333C-551.563 510.333 -569.591 496.776 -587.4 470.355C-605.124 444.06 -622.63 431.259 -639.871 431.259ZM-639.871 128.519C-657.112 128.519 -674.617 141.32 -692.342 167.615L-694 166.497C-676.191 140.075 -658.163 126.519 -639.871 126.519C-621.578 126.519 -603.551 140.075 -585.742 166.497C-568.017 192.792 -550.512 205.593 -533.271 205.593C-516.03 205.593 -498.524 192.792 -480.8 166.497C-462.991 140.075 -444.963 126.519 -426.671 126.519C-408.378 126.519 -390.351 140.075 -372.542 166.497C-354.817 192.792 -337.312 205.593 -320.071 205.593C-302.83 205.593 -285.324 192.792 -267.6 166.497C-249.791 140.075 -231.763 126.519 -213.471 126.519C-195.178 126.519 -177.151 140.075 -159.342 166.497C-141.617 192.792 -124.112 205.593 -106.871 205.593C-89.6298 205.593 -72.1241 192.792 -54.4 166.497C-36.5908 140.075 -18.5631 126.519 -0.270813 126.519C18.0215 126.519 36.0492 140.075 53.8584 166.497C71.5825 192.792 89.0882 205.593 106.329 205.593C123.57 205.593 141.076 192.792 158.8 166.497C176.609 140.075 194.637 126.519 212.929 126.519C231.222 126.519 249.249 140.075 267.058 166.497C284.783 192.792 302.288 205.593 319.529 205.593C336.77 205.593 354.276 192.792 372 166.497C389.809 140.075 407.837 126.519 426.129 126.519C444.422 126.519 462.449 140.075 480.258 166.497C497.983 192.792 515.488 205.593 532.729 205.593C549.97 205.593 567.476 192.792 585.2 166.497C603.009 140.075 621.037 126.519 639.329 126.519C657.622 126.519 675.649 140.075 693.458 166.497C711.182 192.792 728.688 205.593 745.929 205.593C763.17 205.593 780.676 192.792 798.4 166.497C816.209 140.075 834.237 126.519 852.529 126.519C870.822 126.519 888.849 140.075 906.658 166.497C924.382 192.792 941.888 205.593 959.129 205.593C976.37 205.593 993.876 192.792 1011.6 166.497C1029.41 140.075 1047.44 126.519 1065.73 126.519C1084.02 126.519 1102.05 140.075 1119.86 166.497C1137.58 192.792 1155.09 205.593 1172.33 205.593C1189.57 205.593 1207.08 192.792 1224.8 166.497C1242.61 140.075 1260.64 126.519 1278.93 126.519C1297.22 126.519 1315.25 140.075 1333.06 166.497C1350.78 192.792 1368.29 205.593 1385.53 205.593C1402.77 205.593 1420.28 192.792 1438 166.497L1439.66 167.615C1421.85 194.036 1403.82 207.593 1385.53 207.593C1367.24 207.593 1349.21 194.036 1331.4 167.615C1313.68 141.32 1296.17 128.519 1278.93 128.519C1261.69 128.519 1244.18 141.32 1226.46 167.615C1208.65 194.036 1190.62 207.593 1172.33 207.593C1154.04 207.593 1136.01 194.036 1118.2 167.615C1100.48 141.32 1082.97 128.519 1065.73 128.519C1048.49 128.519 1030.98 141.32 1013.26 167.615C995.449 194.036 977.422 207.593 959.129 207.593C940.837 207.593 922.809 194.036 905 167.615C887.276 141.32 869.77 128.519 852.529 128.519C835.288 128.519 817.782 141.32 800.058 167.615C782.249 194.036 764.222 207.593 745.929 207.593C727.637 207.593 709.609 194.036 691.8 167.615C674.076 141.32 656.57 128.519 639.329 128.519C622.088 128.519 604.583 141.32 586.858 167.615C569.049 194.036 551.022 207.593 532.729 207.593C514.437 207.593 496.409 194.036 478.6 167.615C460.876 141.32 443.37 128.519 426.129 128.519C408.888 128.519 391.382 141.32 373.658 167.615C355.849 194.036 337.822 207.593 319.529 207.593C301.237 207.593 283.209 194.036 265.4 167.615C247.676 141.32 230.17 128.519 212.929 128.519C195.688 128.519 178.182 141.32 160.458 167.615C142.649 194.036 124.622 207.593 106.329 207.593C88.0369 207.593 70.0093 194.036 52.2 167.615C34.4759 141.32 16.9702 128.519 -0.270813 128.519C-17.5118 128.519 -35.0175 141.32 -52.7416 167.615C-70.5508 194.036 -88.5784 207.593 -106.871 207.593C-125.163 207.593 -143.191 194.036 -161 167.615C-178.724 141.32 -196.23 128.519 -213.471 128.519C-230.712 128.519 -248.217 141.32 -265.942 167.615C-283.751 194.036 -301.778 207.593 -320.071 207.593C-338.363 207.593 -356.391 194.036 -374.2 167.615C-391.924 141.32 -409.43 128.519 -426.671 128.519C-443.912 128.519 -461.417 141.32 -479.142 167.615C-496.951 194.036 -514.978 207.593 -533.271 207.593C-551.563 207.593 -569.591 194.036 -587.4 167.615C-605.124 141.32 -622.63 128.519 -639.871 128.519ZM-639.871 300.222C-657.112 300.222 -674.617 313.023 -692.342 339.318L-694 338.2C-676.191 311.779 -658.163 298.222 -639.871 298.222C-621.578 298.222 -603.551 311.779 -585.742 338.2C-568.017 364.495 -550.512 377.296 -533.271 377.296C-516.03 377.296 -498.524 364.495 -480.8 338.2C-462.991 311.779 -444.963 298.222 -426.671 298.222C-408.378 298.222 -390.351 311.779 -372.542 338.2C-354.817 364.495 -337.312 377.296 -320.071 377.296C-302.83 377.296 -285.324 364.495 -267.6 338.2C-249.791 311.779 -231.763 298.222 -213.471 298.222C-195.178 298.222 -177.151 311.779 -159.342 338.2C-141.617 364.495 -124.112 377.296 -106.871 377.296C-89.6298 377.296 -72.1241 364.495 -54.4 338.2C-36.5908 311.779 -18.5631 298.222 -0.270813 298.222C18.0215 298.222 36.0492 311.779 53.8584 338.2C71.5825 364.495 89.0882 377.296 106.329 377.296C123.57 377.296 141.076 364.495 158.8 338.2C176.609 311.779 194.637 298.222 212.929 298.222C231.222 298.222 249.249 311.779 267.058 338.2C284.783 364.495 302.288 377.296 319.529 377.296C336.77 377.296 354.276 364.495 372 338.2C389.809 311.779 407.837 298.222 426.129 298.222C444.422 298.222 462.449 311.779 480.258 338.2C497.983 364.495 515.488 377.296 532.729 377.296C549.97 377.296 567.476 364.495 585.2 338.2C603.009 311.779 621.037 298.222 639.329 298.222C657.622 298.222 675.649 311.779 693.458 338.2C711.182 364.495 728.688 377.296 745.929 377.296C763.17 377.296 780.676 364.495 798.4 338.2C816.209 311.779 834.237 298.222 852.529 298.222C870.822 298.222 888.849 311.779 906.658 338.2C924.382 364.495 941.888 377.296 959.129 377.296C976.37 377.296 993.876 364.495 1011.6 338.2C1029.41 311.779 1047.44 298.222 1065.73 298.222C1084.02 298.222 1102.05 311.779 1119.86 338.2C1137.58 364.495 1155.09 377.296 1172.33 377.296C1189.57 377.296 1207.08 364.495 1224.8 338.2C1242.61 311.779 1260.64 298.222 1278.93 298.222C1297.22 298.222 1315.25 311.779 1333.06 338.2C1350.78 364.495 1368.29 377.296 1385.53 377.296C1402.77 377.296 1420.28 364.495 1438 338.2L1439.66 339.318C1421.85 365.739 1403.82 379.296 1385.53 379.296C1367.24 379.296 1349.21 365.739 1331.4 339.318C1313.68 313.023 1296.17 300.222 1278.93 300.222C1261.69 300.222 1244.18 313.023 1226.46 339.318C1208.65 365.739 1190.62 379.296 1172.33 379.296C1154.04 379.296 1136.01 365.739 1118.2 339.318C1100.48 313.023 1082.97 300.222 1065.73 300.222C1048.49 300.222 1030.98 313.023 1013.26 339.318C995.449 365.739 977.422 379.296 959.129 379.296C940.837 379.296 922.809 365.739 905 339.318C887.276 313.023 869.77 300.222 852.529 300.222C835.288 300.222 817.782 313.023 800.058 339.318C782.249 365.739 764.222 379.296 745.929 379.296C727.637 379.296 709.609 365.739 691.8 339.318C674.076 313.023 656.57 300.222 639.329 300.222C622.088 300.222 604.583 313.023 586.858 339.318C569.049 365.739 551.022 379.296 532.729 379.296C514.437 379.296 496.409 365.739 478.6 339.318C460.876 313.023 443.37 300.222 426.129 300.222C408.888 300.222 391.382 313.023 373.658 339.318C355.849 365.739 337.822 379.296 319.529 379.296C301.237 379.296 283.209 365.739 265.4 339.318C247.676 313.023 230.17 300.222 212.929 300.222C195.688 300.222 178.182 313.023 160.458 339.318C142.649 365.739 124.622 379.296 106.329 379.296C88.0369 379.296 70.0093 365.739 52.2 339.318C34.4759 313.023 16.9702 300.222 -0.270813 300.222C-17.5118 300.222 -35.0175 313.023 -52.7416 339.318C-70.5508 365.739 -88.5784 379.296 -106.871 379.296C-125.163 379.296 -143.191 365.739 -161 339.318C-178.724 313.023 -196.23 300.222 -213.471 300.222C-230.712 300.222 -248.217 313.023 -265.942 339.318C-283.751 365.739 -301.778 379.296 -320.071 379.296C-338.363 379.296 -356.391 365.739 -374.2 339.318C-391.924 313.023 -409.43 300.222 -426.671 300.222C-443.912 300.222 -461.417 313.023 -479.142 339.318C-496.951 365.739 -514.978 379.296 -533.271 379.296C-551.563 379.296 -569.591 365.739 -587.4 339.318C-605.124 313.023 -622.63 300.222 -639.871 300.222ZM-639.871 471.926C-657.112 471.926 -674.617 484.727 -692.342 511.022L-694 509.904C-676.191 483.483 -658.163 469.926 -639.871 469.926C-621.578 469.926 -603.551 483.483 -585.742 509.904C-568.017 536.199 -550.512 549 -533.271 549C-516.03 549 -498.524 536.199 -480.8 509.904C-462.991 483.483 -444.963 469.926 -426.671 469.926C-408.378 469.926 -390.351 483.483 -372.542 509.904C-354.817 536.199 -337.312 549 -320.071 549C-302.83 549 -285.324 536.199 -267.6 509.904C-249.791 483.483 -231.763 469.926 -213.471 469.926C-195.178 469.926 -177.151 483.483 -159.342 509.904C-141.617 536.199 -124.112 549 -106.871 549C-89.6298 549 -72.1241 536.199 -54.4 509.904C-36.5908 483.483 -18.5631 469.926 -0.270813 469.926C18.0215 469.926 36.0492 483.483 53.8584 509.904C71.5825 536.199 89.0882 549 106.329 549C123.57 549 141.076 536.199 158.8 509.904C176.609 483.483 194.637 469.926 212.929 469.926C231.222 469.926 249.249 483.483 267.058 509.904C284.783 536.199 302.288 549 319.529 549C336.77 549 354.276 536.199 372 509.904C389.809 483.483 407.837 469.926 426.129 469.926C444.422 469.926 462.449 483.483 480.258 509.904C497.983 536.199 515.488 549 532.729 549C549.97 549 567.476 536.199 585.2 509.904C603.009 483.483 621.037 469.926 639.329 469.926C657.622 469.926 675.649 483.483 693.458 509.904C711.182 536.199 728.688 549 745.929 549C763.17 549 780.676 536.199 798.4 509.904C816.209 483.483 834.237 469.926 852.529 469.926C870.822 469.926 888.849 483.483 906.658 509.904C924.382 536.199 941.888 549 959.129 549C976.37 549 993.876 536.199 1011.6 509.904C1029.41 483.483 1047.44 469.926 1065.73 469.926C1084.02 469.926 1102.05 483.483 1119.86 509.904C1137.58 536.199 1155.09 549 1172.33 549C1189.57 549 1207.08 536.199 1224.8 509.904C1242.61 483.483 1260.64 469.926 1278.93 469.926C1297.22 469.926 1315.25 483.483 1333.06 509.904C1350.78 536.199 1368.29 549 1385.53 549C1402.77 549 1420.28 536.199 1438 509.904L1439.66 511.022C1421.85 537.443 1403.82 551 1385.53 551C1367.24 551 1349.21 537.443 1331.4 511.022C1313.68 484.727 1296.17 471.926 1278.93 471.926C1261.69 471.926 1244.18 484.727 1226.46 511.022C1208.65 537.443 1190.62 551 1172.33 551C1154.04 551 1136.01 537.443 1118.2 511.022C1100.48 484.727 1082.97 471.926 1065.73 471.926C1048.49 471.926 1030.98 484.727 1013.26 511.022C995.449 537.443 977.422 551 959.129 551C940.837 551 922.809 537.443 905 511.022C887.276 484.727 869.77 471.926 852.529 471.926C835.288 471.926 817.782 484.727 800.058 511.022C782.249 537.443 764.222 551 745.929 551C727.637 551 709.609 537.443 691.8 511.022C674.076 484.727 656.57 471.926 639.329 471.926C622.088 471.926 604.583 484.727 586.858 511.022C569.049 537.443 551.022 551 532.729 551C514.437 551 496.409 537.443 478.6 511.022C460.876 484.727 443.37 471.926 426.129 471.926C408.888 471.926 391.382 484.727 373.658 511.022C355.849 537.443 337.822 551 319.529 551C301.237 551 283.209 537.443 265.4 511.022C247.676 484.727 230.17 471.926 212.929 471.926C195.688 471.926 178.182 484.727 160.458 511.022C142.649 537.443 124.622 551 106.329 551C88.0369 551 70.0093 537.443 52.2 511.022C34.4759 484.727 16.9702 471.926 -0.270813 471.926C-17.5118 471.926 -35.0175 484.727 -52.7416 511.022C-70.5508 537.443 -88.5784 551 -106.871 551C-125.163 551 -143.191 537.443 -161 511.022C-178.724 484.727 -196.23 471.926 -213.471 471.926C-230.712 471.926 -248.217 484.727 -265.942 511.022C-283.751 537.443 -301.778 551 -320.071 551C-338.363 551 -356.391 537.443 -374.2 511.022C-391.924 484.727 -409.43 471.926 -426.671 471.926C-443.912 471.926 -461.417 484.727 -479.142 511.022C-496.951 537.443 -514.978 551 -533.271 551C-551.563 551 -569.591 537.443 -587.4 511.022C-605.124 484.727 -622.63 471.926 -639.871 471.926Z" fill="#C13F25" fill-opacity="0.6" style="fill:#C13F25;fill:color(display-p3 0.7569 0.2471 0.1451);fill-opacity:0.6;"/>
</svg>
